<?xml version="1.0" standalone="no"?><!DOCTYPE svg PUBLIC "-//W3C//DTD SVG 1.1//EN" "http://www.w3.org/Graphics/SVG/1.1/DTD/svg11.dtd"><svg t="1666852941891" class="icon" viewBox="0 0 1024 1024" version="1.1" xmlns="http://www.w3.org/2000/svg" p-id="4207" xmlns:xlink="http://www.w3.org/1999/xlink" width="200" height="200"><path d="M475.1 475.1V365.3c0-60.6-49.1-109.8-109.8-109.8-37.9 0-71.4 19.2-91.1 48.5 1.6 2.7 3.1 5.4 4.6 8.2 41.8 46.2 67.3 102.1 83.6 162.7 0.9 0 1.8 0.2 2.8 0.2h109.9zM767.8 365.3c0-60.6-49.1-109.8-109.8-109.8-37.6 0-70.8 18.9-90.5 47.8 30.8 54.4 58.1 112 80.7 171.8h9.8c60.7 0 109.8-49.1 109.8-109.8zM378 548.3c11.4 70.8 15.1 144.8 21 214.8 45.1-13.6 77.9-55.5 77.9-105V548.3H378zM766 658c0-54.6-39.9-99.8-92.1-108.2 20.1 65.7 34.3 133.1 41.4 200.7C745.7 731 766 696.9 766 658z" fill="#FFDE55" p-id="4208"></path><path d="M365.4 487.6h122.3V365.3c0-67.4-54.8-122.3-122.3-122.3-67.4 0-122.3 54.8-122.3 122.3S298 487.6 365.4 487.6z m0-219.5c53.6 0 97.3 43.6 97.3 97.3v97.3h-97.3c-53.6 0-97.3-43.6-97.3-97.3s43.6-97.3 97.3-97.3zM780.3 365.3c0-67.4-54.8-122.3-122.3-122.3-67.4 0-122.3 54.8-122.3 122.3v122.3H658c67.5 0 122.3-54.8 122.3-122.3z m-219.5 0c0-53.6 43.6-97.3 97.3-97.3 53.6 0 97.3 43.6 97.3 97.3s-43.6 97.3-97.3 97.3h-97.3v-97.3zM244.9 658c0 67.4 54.8 122.3 122.3 122.3 67.4 0 122.3-54.8 122.3-122.3V535.8H367.2c-67.4 0-122.3 54.8-122.3 122.2z m219.6 0c0 53.6-43.6 97.3-97.3 97.3-53.6 0-97.3-43.6-97.3-97.3 0-53.6 43.6-97.3 97.3-97.3h97.3V658zM656.2 535.8H534V658c0 67.4 54.8 122.3 122.3 122.3 67.4 0 122.3-54.8 122.3-122.3-0.1-67.4-54.9-122.2-122.4-122.2z m0 219.5c-53.6 0-97.3-43.6-97.3-97.3v-97.3h97.3c53.6 0 97.3 43.6 97.3 97.3 0 53.7-43.6 97.3-97.3 97.3z" fill="" p-id="4209"></path></svg>