<?xml version="1.0" standalone="no"?><!DOCTYPE svg PUBLIC "-//W3C//DTD SVG 1.1//EN" "http://www.w3.org/Graphics/SVG/1.1/DTD/svg11.dtd"><svg t="1666886158837" class="icon" viewBox="0 0 1024 1024" version="1.1" xmlns="http://www.w3.org/2000/svg" p-id="12173" xmlns:xlink="http://www.w3.org/1999/xlink" width="200" height="200"><path d="M907.7 558.3c-16.3-70.5-91.8-74.3-129.3-66.4-9.7 2-15.9 11.5-13.9 21.3 2 9.7 11.5 16.1 21.2 14 3-0.6 74.5-14.5 86.9 39.3 5.1 22.1 0.5 44.8-13.7 67.5-28.1 44.7-90.7 84.8-168.5 110 18.5-23.7 34.6-50.2 45.4-79.9 5.9-16.3 12.4-46.6 15.6-79.4 27.6-12.9 68.7-21.5 76.5-7.8 10.4 18.3-12.6 49.9-61.4 84.4-9.3 6.6-19.6 13.1-30.6 19.4-8.6 4.9-11.7 15.9-6.7 24.5 3.3 5.8 9.4 9.1 15.7 9.1 3 0 6.1-0.8 8.9-2.4 12-6.8 23.3-14 33.6-21.3 86.5-61.1 86.9-105.3 71.9-131.6-20.1-35.3-71.4-26.4-106-13.9-0.1-19.7-1.7-38.8-6.1-54.6-7.8-27.8-34-47.3-63.8-47.3H182.5c-29.8 0-56.1 19.5-63.8 47.4-5.7 20.6-6 61.3-4.5 82.3 0.7 9.9 9.4 17.2 19.3 16.6 9.9-0.7 17.4-9.4 16.6-19.3-1.6-21.6-0.5-56.2 3.3-70 3.4-12.4 15.4-21 29.1-21h500.9c13.7 0 25.7 8.6 29.1 20.9 11.8 42.5-0.2 123.5-10.5 151.7-40.2 110.6-167.8 178.5-190.3 189.8H354.3c-19.9-10.6-117.5-65.9-170.5-154.7-5.1-8.6-16.2-11.3-24.7-6.2s-11.3 16.1-6.2 24.7c37.7 63.2 94.2 109.8 135.7 138.1H224c-9.9 0-18 8.1-18 18s8.1 18 18 18h428c9.9 0 18-8.1 18-18s-8.1-18-18-18h-72c19.8-13 42.6-30 65.1-50.6 0.3 0 0.5 0.1 0.8 0.1 1.3 0 2.6-0.1 4-0.4 109.1-24.6 200.9-78 239.6-139.5 19.1-30.7 25.4-63.5 18.2-94.8z" fill="#662F0A" p-id="12174"></path><path d="M166 635.7l-1.6-5.6c-1-3.7-2.3-8.1-2.6-9.3-2.4-9.6-12.3-15.4-21.9-13-9.6 2.4-15.5 12.2-13 21.8 0.3 1.3 1.7 6.3 2.9 10.4l1.5 5.1c2.2 8 9.4 13.3 17.4 13.3 1.6 0 3.2-0.2 4.7-0.6 9.5-2.6 15.2-12.5 12.6-22.1zM226.3 282.4l2.2 1.6c5.5 4 15.2 9.8 25.2 15.8 12.6 7.6 25.6 15.4 30.6 19.7 7.2 6.2 15.3 15.5 14.4 31.9-1.5 27.7-33.7 43.7-49.2 51.4-7.3 3.6-9.6 4.8-10.7 6.9l-1 2.3 1.1 1.9 3 2.3h2.2c7.3 0 33.5-5.8 47.6-15 26.1-16.9 36.8-37 33.9-63.1-1.9-16.9-10.2-29.6-26.9-41.3-11-7.7-15.3-10.6-32.3-19.7l-12.9-7.8c-15.2-9.3-20.3-12.4-28.3-21.8-6.2-7.3-12.6-14.8-12-37.9 0.5-19.9 14.2-37.6 38.4-49.8 6.2-3.1 12.5-4.3 16.6-5.1 4-0.8 7.5-1.4 7.5-5.2 0-4.8-6.2-4.8-10-4.8-12.5 0-38.2 4.1-54.8 19.6-15.8 14.7-23.8 32-23.8 51.4 0 38.7 22.6 54.9 39.2 66.7zM390.5 282.4l2.2 1.6c5.5 4 15.2 9.8 25.2 15.8 12.6 7.6 25.6 15.4 30.6 19.7 7.2 6.2 15.3 15.5 14.4 31.9-1.5 27.7-33.7 43.7-49.2 51.4-7.3 3.6-9.6 4.8-10.7 6.9l-1 2.3 1.1 1.9 3 2.3h2.2c7.3 0 33.5-5.8 47.6-15 26.1-16.9 36.8-37 33.9-63.1-1.9-16.9-10.2-29.6-26.9-41.3-11-7.7-15.3-10.6-32.3-19.7l-12.9-7.8c-15.2-9.3-20.3-12.4-28.3-21.8-6.2-7.3-12.6-14.8-12-37.9 0.5-19.9 14.2-37.6 38.4-49.8 6.2-3.1 12.5-4.3 16.6-5.1 4-0.8 7.5-1.4 7.5-5.2 0-4.8-6.2-4.8-10-4.8-12.5 0-38.2 4.1-54.8 19.6-15.8 14.7-23.8 32-23.8 51.4 0 38.7 22.6 54.9 39.2 66.7zM554.7 282.4l2.2 1.6c5.5 4 15.2 9.8 25.2 15.8 12.6 7.6 25.6 15.4 30.6 19.7 7.2 6.2 15.3 15.5 14.4 31.9-1.5 27.7-33.7 43.7-49.2 51.4-7.3 3.6-9.6 4.8-10.7 6.9l-1 2.3 1.1 1.9 3 2.3h2.2c7.3 0 33.5-5.8 47.6-15 26.1-16.9 36.8-37 33.9-63.1-1.9-16.9-10.2-29.6-26.9-41.3-11-7.7-15.3-10.6-32.3-19.7l-12.9-7.8c-15.2-9.3-20.3-12.4-28.3-21.8-6.2-7.3-12.6-14.8-12-37.9 0.5-19.9 14.2-37.6 38.4-49.8 6.2-3.1 12.5-4.3 16.7-5.1 4-0.8 7.5-1.4 7.5-5.2 0-4.8-6.2-4.8-10-4.8-12.5 0-38.2 4.1-54.8 19.6-15.8 14.7-23.8 32-23.8 51.4-0.1 38.7 22.5 54.9 39.1 66.7zM436.7 664.3c-17.4 31.8-38.7 50.1-63.3 54.3-2.9 0.5-5.7 0.5-8.5 0.6 27.4 22.6 73 23 111.2-1.7 35.9-23.2 54-61.2 48.6-94.1-7.8-3.5-22.3-8.4-38.7-4.4-18.8 4.7-35.4 19.9-49.3 45.3z" fill="#662F0A" p-id="12175"></path><path d="M391.1 586c-40.2 26-58.5 70.7-45.8 105.8 6.8 2.7 15.2 4.6 24.2 3 17-3 32.5-17.1 46.1-42 17.3-31.7 39.1-50.9 64.9-57.2 11.6-2.8 22.4-2.5 31.7-0.9-24.9-32.4-77.6-36.8-121.1-8.7z" fill="#662F0A" p-id="12176"></path></svg>