<?xml version="1.0" standalone="no"?><!DOCTYPE svg PUBLIC "-//W3C//DTD SVG 1.1//EN" "http://www.w3.org/Graphics/SVG/1.1/DTD/svg11.dtd"><svg t="1666886566119" class="icon" viewBox="0 0 1024 1024" version="1.1" xmlns="http://www.w3.org/2000/svg" p-id="20026" xmlns:xlink="http://www.w3.org/1999/xlink" width="200" height="200"><path d="M597.3 300.7h-40.7c-1.1 0-2 0.9-2 2v422.7c0 1.1 0.9 2 2 2h40.7c70.7 0 128-57.3 128-128V428.7c0-70.7-57.3-128-128-128z" fill="#F9DB88" p-id="20027"></path><path d="M896 130H128c-23.6 0-42.7 19.1-42.7 42.7v682.7c0 23.6 19.1 42.7 42.7 42.7h768c23.6 0 42.7-19.1 42.7-42.7V172.7c0-23.6-19.1-42.7-42.7-42.7zM384 642c0 94.1-76.5 170.7-170.7 170.7-23.6 0-42.7-19.1-42.7-42.7s19.1-42.7 42.7-42.7c47 0 85.3-38.3 85.3-85.3V258c0-23.6 19.1-42.7 42.7-42.7S384 234.4 384 258v384z m426.7-42.6c0 117.8-95.5 213.3-213.3 213.3H512c-23.6 0-42.7-19.1-42.7-42.7V258c0-23.6 19.1-42.7 42.7-42.7h85.3c117.8 0 213.3 95.5 213.3 213.3l0.1 170.8z" fill="#009F72" p-id="20028"></path></svg>