<?xml version="1.0" standalone="no"?><!DOCTYPE svg PUBLIC "-//W3C//DTD SVG 1.1//EN" "http://www.w3.org/Graphics/SVG/1.1/DTD/svg11.dtd"><svg t="1666881544412" class="icon" viewBox="0 0 1024 1024" version="1.1" xmlns="http://www.w3.org/2000/svg" p-id="8672" xmlns:xlink="http://www.w3.org/1999/xlink" width="200" height="200"><path d="M512 512m-512 0a512 512 0 1 0 1024 0 512 512 0 1 0-1024 0Z" fill="#E9F7FA" p-id="8673"></path><path d="M248.271249 220.20994m3.567116 0l299.637715 0q3.567116 0 3.567116 3.567115l0 299.637715q0 3.567116-3.567116 3.567116l-299.637715 0q-3.567116 0-3.567116-3.567116l0-299.637715q0-3.567116 3.567116-3.567115Z" fill="#24A5CC" p-id="8674"></path><path d="M546.957733 229.008825v288.936368H257.070135V229.008825H546.957733m5.469578-17.835578H251.838365a12.603809 12.603809 0 0 0-12.603809 12.603808V523.176962a12.366001 12.366001 0 0 0 12.603809 12.366001h299.637715a12.366001 12.366001 0 0 0 12.366001-12.366001V223.777055a12.366001 12.366001 0 0 0-12.366001-12.603808z" fill="#170901" p-id="8675"></path><path d="M449.218765 430.194148a9.036693 9.036693 0 0 1-6.183001-2.615885l-95.123084-95.123084a8.798885 8.798885 0 0 1 12.603809-12.603809l95.123084 95.123084a8.798885 8.798885 0 0 1 0 12.603809 9.274501 9.274501 0 0 1-6.420808 2.615885z" fill="#FFFFFF" p-id="8676"></path><path d="M353.857873 430.194148a9.036693 9.036693 0 0 1-6.183001-2.615885 8.798885 8.798885 0 0 1 0-12.603809l95.123084-95.123084a8.798885 8.798885 0 0 1 12.603809 12.603809l-95.123084 95.123084a9.512308 9.512308 0 0 1-6.420808 2.615885z" fill="#FFFFFF" p-id="8677"></path><path d="M563.842081 760.984673a193.813284 193.813284 0 1 1 193.813284-193.813284A194.051092 194.051092 0 0 1 563.842081 760.984673z" fill="#FF912E" p-id="8678"></path><path d="M563.842081 383.108221a184.776591 184.776591 0 1 1-184.776591 184.776591 185.014399 185.014399 0 0 1 184.776591-184.776591m0-17.835578a202.612169 202.612169 0 1 0 202.612169 202.612169 202.849977 202.849977 0 0 0-202.612169-202.612169z" fill="#170901" p-id="8679"></path><path d="M563.842081 567.884812m-151.721319 0a151.721319 151.721319 0 1 0 303.442638 0 151.721319 151.721319 0 1 0-303.442638 0Z" fill="#FFFFFF" p-id="8680"></path><path d="M523.176962 503.438922l39.238273 63.494659a4.756154 4.756154 0 0 0 7.847654 0l39.238272-63.494659a4.756154 4.756154 0 0 1 4.042731-2.140269h25.683233L578.823967 594.519275a4.518346 4.518346 0 0 0 0 2.378078v61.830004h-23.780771v-61.592197a4.518346 4.518346 0 0 0 0-2.378077l-60.403159-93.45843h25.683233a4.756154 4.756154 0 0 1 2.853692 2.140269zM818.058523 401.89503a8.798885 8.798885 0 0 1-8.798885-9.036693 164.800743 164.800743 0 0 0-164.562936-164.325128 9.036693 9.036693 0 0 1-9.036693-9.036693 8.798885 8.798885 0 0 1 9.036693-8.798885 182.636321 182.636321 0 0 1 182.398514 182.160706 9.036693 9.036693 0 0 1-9.036693 9.036693z" fill="#FF912E" p-id="8681"></path><path d="M821.625639 428.053878l31.15281-38.524849a4.518346 4.518346 0 0 0-3.567116-7.372039h-62.30562a4.518346 4.518346 0 0 0-3.567116 7.372039L814.491407 428.053878a4.756154 4.756154 0 0 0 7.134232 0z" fill="#FF912E" p-id="8682"></path><path d="M380.492336 821.625639a182.636321 182.636321 0 0 1-182.398513-182.398514 8.798885 8.798885 0 0 1 9.036693-8.798885 8.561078 8.561078 0 0 1 8.798885 8.798885A164.800743 164.800743 0 0 0 380.492336 803.79006a9.036693 9.036693 0 1 1 0 17.835579z" fill="#24A5CC" p-id="8683"></path><path d="M202.374361 605.45843L171.221551 643.745471a4.756154 4.756154 0 0 0 3.567116 7.609847H237.80771a4.756154 4.756154 0 0 0 3.804924-7.609847l-32.104041-38.287041a4.518346 4.518346 0 0 0-7.134232 0z" fill="#24A5CC" p-id="8684"></path></svg>