<?xml version="1.0" standalone="no"?><!DOCTYPE svg PUBLIC "-//W3C//DTD SVG 1.1//EN" "http://www.w3.org/Graphics/SVG/1.1/DTD/svg11.dtd"><svg t="1666881398604" class="icon" viewBox="0 0 1024 1024" version="1.1" xmlns="http://www.w3.org/2000/svg" p-id="6629" xmlns:xlink="http://www.w3.org/1999/xlink" width="200" height="200"><path d="M795.2 213H319.9c-17.4 0-31.7 14.2-31.7 31.6v664.7c0 17.4 14.3 31.7 31.7 31.7h475.3c17.4 0 31.7-14.2 31.7-31.7V244.6c0-17.4-14.2-31.6-31.7-31.6zM628.9 656.1c0 2.2-3.5 4-7.9 4H415c-4.4 0-7.9-1.8-7.9-4v-7.9c0-2.2 3.5-4 7.9-4h206c4.4 0 7.9 1.8 7.9 4v7.9z m0-118.7c0 2.2-3.5 4-7.9 4H415c-4.4 0-7.9-1.8-7.9-4v-7.9c0-2.2 3.5-4 7.9-4h206c4.4 0 7.9 1.8 7.9 4v7.9z m79.2-118.7c0 2.2-3.5 4-7.9 4H415c-4.4 0-7.9-1.8-7.9-4v-7.9c0-2.2 3.5-4 7.9-4h285.2c4.4 0 7.9 1.8 7.9 4v7.9z" fill="#C5E5FF" p-id="6630"></path><path d="M798.3 960H225.7c-26.3 0-47.7-21.4-47.7-47.7V111.7c0-26.3 21.4-47.7 47.7-47.7h572.6c26.3 0 47.7 21.4 47.7 47.7v800.7c0 26.2-21.4 47.6-47.7 47.6zM225.7 83.1c-15.8 0-28.6 12.8-28.6 28.6v800.7c0 15.8 12.8 28.6 28.6 28.6h572.6c15.8 0 28.6-12.8 28.6-28.6V111.7c0-15.8-12.8-28.6-28.6-28.6H225.7z" fill="#3B94FF" p-id="6631"></path><path d="M597.9 607.3c0 2.6-4.3 4.8-9.5 4.8H340.2c-5.3 0-9.5-2.1-9.5-4.8v-9.5c0-2.6 4.3-4.8 9.5-4.8h248.1c5.3 0 9.5 2.1 9.5 4.8v9.5zM597.9 464.3c0 2.6-4.3 4.8-9.5 4.8H340.2c-5.3 0-9.5-2.1-9.5-4.8v-9.5c0-2.6 4.3-4.8 9.5-4.8h248.1c5.3 0 9.5 2.1 9.5 4.8v9.5zM693.3 321.4c0 2.6-4.3 4.8-9.5 4.8H340.2c-5.3 0-9.5-2.1-9.5-4.8v-9.5c0-2.6 4.3-4.8 9.5-4.8h343.5c5.3 0 9.5 2.1 9.5 4.8v9.5z" fill="#3B94FF" p-id="6632"></path></svg>