<?xml version="1.0" standalone="no"?><!DOCTYPE svg PUBLIC "-//W3C//DTD SVG 1.1//EN" "http://www.w3.org/Graphics/SVG/1.1/DTD/svg11.dtd"><svg t="1666886268614" class="icon" viewBox="0 0 1024 1024" version="1.1" xmlns="http://www.w3.org/2000/svg" p-id="14303" xmlns:xlink="http://www.w3.org/1999/xlink" width="200" height="200"><path d="M732.717936 170.182028h-416.270818c-32.841122 0-59.46726 26.626138-59.46726 59.467259v594.672597c0 32.83805 26.626138 59.46726 59.46726 59.46726h416.270818c32.841122 0 59.46726-26.62921 59.467259-59.46726v-594.672597c0-32.841122-26.626138-59.46726-59.467259-59.467259z m-297.336299 594.672596h-89.200889v-89.200889h89.200889v89.200889z m0-118.964212h-89.200889v-89.200889h89.200889v89.200889z m0-118.904826h-89.200889v-89.20089h89.200889v89.20089z m133.801335 237.869038h-89.20089v-89.200889h89.20089v89.200889z m0-118.964212h-89.20089v-89.200889h89.20089v89.200889z m0-118.904826h-89.20089v-89.20089h89.20089v89.20089z m133.801334 237.869038h-89.20089V556.689523h89.20089v208.165101z m0-237.869038h-89.20089v-89.20089h89.20089v89.20089z m0-148.66815h-356.803558v-89.200889h356.803558v89.200889z" fill="#98C4D8" p-id="14304"></path><path d="M702.984306 140.448398h-416.270818c-32.841122 0-59.46726 26.626138-59.46726 59.467259v594.672597c0 32.83805 26.626138 59.46726 59.46726 59.46726h416.270818c32.841122 0 59.46726-26.62921 59.467259-59.46726v-594.672597c0-32.841122-26.626138-59.46726-59.467259-59.467259z m-297.336299 594.672596h-89.200889v-89.200889h89.200889v89.200889z m0-118.964212h-89.200889v-89.200889h89.200889v89.200889z m0-118.904826h-89.200889v-89.20089h89.200889v89.20089z m133.801335 237.869038h-89.20089v-89.200889h89.20089v89.200889z m0-118.964212h-89.20089v-89.200889h89.20089v89.200889z m0-118.904826h-89.20089v-89.20089h89.20089v89.20089z m133.801334 237.869038h-89.20089V526.955893h89.20089v208.165101z m0-237.869038h-89.20089v-89.20089h89.20089v89.20089z m0-148.668149h-356.803558v-89.20089h356.803558v89.20089z" fill="#EFD9A0" p-id="14305"></path><path d="M298.074141 230.660103a26.750028 56.844065 55.515 1 0 93.710221-64.369136 26.750028 56.844065 55.515 1 0-93.710221 64.369136Z" fill="#FEFEFE" p-id="14306"></path><path d="M240.63165 324.208261a17.834035 31.209049 55.515 1 0 51.449643-35.340531 17.834035 31.209049 55.515 1 0-51.449643 35.340531Z" fill="#FEFEFE" p-id="14307"></path></svg>