<?xml version="1.0" standalone="no"?><!DOCTYPE svg PUBLIC "-//W3C//DTD SVG 1.1//EN" "http://www.w3.org/Graphics/SVG/1.1/DTD/svg11.dtd"><svg t="1666881450434" class="icon" viewBox="0 0 1024 1024" version="1.1" xmlns="http://www.w3.org/2000/svg" p-id="7734" xmlns:xlink="http://www.w3.org/1999/xlink" width="200" height="200"><path d="M493.9 236.8c175 0 317.4 142.4 317.4 317.4S668.9 871.5 493.9 871.5 176.5 729.1 176.5 554.1s142.4-317.3 317.4-317.3m0-35.6c-194.9 0-353 158-353 353s158 353 353 353 353-158 353-353-158.1-353-353-353z" fill="#6229CE" p-id="7735"></path><path d="M493.9 272.3c158.6 0 287.7 126.4 287.7 281.8S652.5 835.9 493.9 835.9 206.2 709.5 206.2 554.1s129.1-281.8 287.7-281.8m0-35.5c-178.6 0-323.3 142.1-323.3 317.4s144.7 317.4 323.3 317.4 323.3-142.1 323.3-317.4-144.7-317.4-323.3-317.4z" fill="#ABA3CC" p-id="7736"></path><path d="M229.8 102.8c20.3 0 40 4.7 57.7 13.7l-172 172C90.9 240.3 99 180.6 139.4 140.3c24.1-24.2 56.3-37.5 90.4-37.5m0-35.6c-41.9 0-83.7 16-115.6 47.9-62.9 62.9-63.8 164-3.1 228.2L342.4 112c-31.6-29.9-72.1-44.8-112.6-44.8zM795.8 102.8c34.2 0 66.3 13.3 90.5 37.5 40.3 40.3 48.4 100.1 23.9 148.3L738.1 116.5c17.7-9 37.4-13.7 57.7-13.7m0-35.6c-40.5 0-81 14.9-112.6 44.8l231.3 231.3c60.7-64.2 59.7-165.3-3.1-228.2-31.9-32-73.8-47.9-115.6-47.9zM496.9 565c-6.6 0-11.9-5.3-11.9-11.9V345.5c0-6.6 5.3-11.9 11.9-11.9 6.6 0 11.9 5.3 11.9 11.9v207.6c-0.1 6.6-5.4 11.9-11.9 11.9zM181.2 956.8l-20.9-20.9c-1.2-1.2-1.2-3.1 0-4.2l121.6-121.6c1.2-1.2 3.1-1.2 4.2 0L307 831c1.2 1.2 1.2 3.1 0 4.2L185.4 956.8c-1.1 1.2-3 1.2-4.2 0zM801.5 956.8l20.9-20.9c1.2-1.2 1.2-3.1 0-4.2L700.9 810.1c-1.2-1.2-3.1-1.2-4.2 0l-21 20.9c-1.2 1.2-1.2 3.1 0 4.2l121.6 121.6c1.2 1.2 3.1 1.2 4.2 0z" fill="#6229CE" p-id="7737"></path><path d="M488.5 544.7c4.6-4.6 12.1-4.6 16.8 0l73.4 73.4c4.6 4.6 4.6 12.1 0 16.8-4.6 4.6-12.1 4.6-16.8 0l-73.4-73.4c-4.6-4.6-4.6-12.1 0-16.8z" fill="#6229CE" p-id="7738"></path></svg>