<?xml version="1.0" standalone="no"?><!DOCTYPE svg PUBLIC "-//W3C//DTD SVG 1.1//EN" "http://www.w3.org/Graphics/SVG/1.1/DTD/svg11.dtd"><svg t="1666886195878" class="icon" viewBox="0 0 1024 1024" version="1.1" xmlns="http://www.w3.org/2000/svg" p-id="13119" xmlns:xlink="http://www.w3.org/1999/xlink" width="200" height="200"><path d="M807.64 733.83H691.45V618.64h101.87c2.42 0 4.84-0.13 7.24-0.4 8.77-0.96 17.03-4.6 24.1-9.89l33.89-32.66v107.23c0 28.12-22.79 50.91-50.91 50.91z" fill="#F5B200" p-id="13120"></path><path d="M663.34 733.83c-2.98 13.27-14.79 23.21-28.96 23.21h-410.7c-14.17 0-25.98-9.94-28.96-23.21h-28.87v86.12c0 32.4 26.26 58.66 58.66 58.66h408.3c32.4 0 58.66-26.26 58.66-58.66v-86.12h-28.13z" fill="#FFD524" p-id="13121"></path><path d="M806.27 737.83h-24.06c-2.21 0-4-1.79-4-4s1.79-4 4-4h24.06c25.48 0 46.21-24.36 46.21-54.31V173.31c0-29.95-20.73-54.31-46.21-54.31H440.81c-20.13 0-37.81 15.13-43.99 37.64-0.58 2.13-2.78 3.38-4.92 2.8-2.13-0.58-3.38-2.79-2.8-4.92 7.15-26.04 27.92-43.53 51.71-43.53h365.46c29.89 0 54.21 27.95 54.21 62.31v502.21c0 34.37-24.32 62.32-54.21 62.32z" fill="#333333" p-id="13122"></path><path d="M633.08 882.61H224.21c-34.39 0-62.37-27.98-62.37-62.37V506.19c0-2.21 1.79-4 4-4s4 1.79 4 4v314.05c0 29.98 24.39 54.37 54.37 54.37h408.88c29.98 0 54.37-24.39 54.37-54.37V429.56H553.41c-19.28 0-31.09-4.43-38.31-14.36-6.4-8.81-9.02-21.49-9.02-43.78V245.73H224.21c-29.98 0-54.37 24.39-54.37 54.37v38.65c0 2.21-1.79 4-4 4s-4-1.79-4-4V300.1c0-34.39 27.98-62.37 62.37-62.37h285.88c1.06 0 2.08 0.42 2.83 1.17s1.17 1.77 1.17 2.83v129.69c0 39.36 8.45 50.14 39.33 50.14h138.04c2.21 0 4 1.79 4 4v394.68c-0.01 34.39-27.98 62.37-62.38 62.37z" fill="#333333" p-id="13123"></path><path d="M165.84 429.7c-2.21 0-4-1.79-4-4v-3.66c0-2.21 1.79-4 4-4s4 1.79 4 4v3.66c0 2.21-1.8 4-4 4zM691.45 429.56c-1.03 0-2.06-0.4-2.85-1.19L507.24 244.54a4.008 4.008 0 0 1 0.04-5.66 4.008 4.008 0 0 1 5.66 0.04L694.3 422.75a4.008 4.008 0 0 1-0.04 5.66c-0.78 0.77-1.79 1.15-2.81 1.15z" fill="#333333" p-id="13124"></path></svg>