<?xml version="1.0" standalone="no"?><!DOCTYPE svg PUBLIC "-//W3C//DTD SVG 1.1//EN" "http://www.w3.org/Graphics/SVG/1.1/DTD/svg11.dtd"><svg t="1666881673692" class="icon" viewBox="0 0 1024 1024" version="1.1" xmlns="http://www.w3.org/2000/svg" p-id="10089" xmlns:xlink="http://www.w3.org/1999/xlink" width="200" height="200"><path d="M480.35 448.8v-62.7H263.42v381.7h69.14V612.15h137.23v-62.7H332.56V448.8h147.79z" p-id="10090"></path><path d="M792.33 888h-624V136h368v184a72 72 0 0 0 72 72h184v56.21h72v-98.39a72 72 0 0 0-21.08-50.91L629.42 85.09A72 72 0 0 0 578.51 64H168.33a72 72 0 0 0-72 72v752a72 72 0 0 0 72 72h624a72 72 0 0 0 72-72v-56.28h-72z m-184-722.18L762.51 320H608.33z" p-id="10091"></path><path d="M612.67 483.1c-32.1 46.8-48.9 91.8-48.9 145.8 0 51.3 16.5 96.9 47.7 142.2h37.2c-31.2-49.5-45.9-96-45.9-144.3 0-46.5 14.4-91.8 47.1-143.7zM707.47 711.1l37.5-59.7h1.8l36.6 59.7h44.1l-55.5-83.1 52.5-78.9h-42.9l-34.5 56.7h-1.8l-34.5-56.7h-43.5l52.5 79.2-56.1 82.8h43.8zM880 483.1h-37.2c31.2 49.5 45.9 96 45.9 144.3 0 46.5-14.4 91.8-47.1 143.7h37.2c32.1-46.8 48.91-91.8 48.91-145.8-0.04-51.3-16.55-96.9-47.71-142.2z" p-id="10092"></path></svg>