<?xml version="1.0" standalone="no"?><!DOCTYPE svg PUBLIC "-//W3C//DTD SVG 1.1//EN" "http://www.w3.org/Graphics/SVG/1.1/DTD/svg11.dtd"><svg t="1666886680287" class="icon" viewBox="0 0 1024 1024" version="1.1" xmlns="http://www.w3.org/2000/svg" p-id="22901" xmlns:xlink="http://www.w3.org/1999/xlink" width="200" height="200"><path d="M172.51 390.94h668.55c9.08 0 18.2 0.25 27.28 0h1.16c7.81 0 15.28-8.34 14.92-18.12s-6.56-18.12-14.92-18.12H201c-9.09 0-18.2-0.25-27.28 0h-1.17c-7.8 0-15.27 8.33-14.91 18.12s6.55 18.12 14.91 18.12" fill="#DD6E80" p-id="22902"></path><path d="M859.24 394.67c-3 0-6.11 0-9.16-0.05s-6-0.06-9-0.06H172.51c-10.11 0-18.08-9.29-18.53-21.61a22.27 22.27 0 0 1 6.17-16.22 17.25 17.25 0 0 1 12.36-5.65h1.07c2.74-0.08 5.75-0.11 9.18-0.11h9.12c3 0 6 0.06 9.05 0.06H869.5c10.12 0 18.09 9.29 18.54 21.61a22.31 22.31 0 0 1-6.17 16.22 17.33 17.33 0 0 1-12.37 5.65h-1c-2.81 0.13-5.82 0.16-9.26 0.16z m-18.18-7.36c3 0 6.06 0 9.08 0.06s6.07 0.05 9.1 0.05c3.37 0 6.32 0 9-0.11h1.26a10.29 10.29 0 0 0 7.15-3.43A15 15 0 0 0 880.8 373c-0.3-8.2-5.27-14.63-11.3-14.63H201c-3.07 0-6.11 0-9.15-0.05s-6-0.06-9.05-0.06c-3.37 0-6.3 0-9 0.11h-1.22a10.31 10.31 0 0 0-7.18 3.44 15 15 0 0 0-4.15 10.93c0.3 8.2 5.26 14.62 11.29 14.62z" fill="#133131" p-id="22903"></path><path d="M172.51 288h668.55c9.08 0 18.2 0.25 27.28 0h1.16c7.81 0 15.28-8.34 14.92-18.12s-6.55-18.12-14.92-18.12H201c-9.09 0-18.2-0.25-27.28 0h-1.17c-7.8 0-15.27 8.33-14.91 18.12S164.15 288 172.51 288" fill="#DD6E80" p-id="22904"></path><path d="M859.26 291.78c-3 0-6.09 0-9.14-0.06s-6-0.05-9.06-0.05H172.51c-10.11 0-18.08-9.29-18.53-21.61a22.27 22.27 0 0 1 6.17-16.22 17.26 17.26 0 0 1 12.36-5.66h1.07c2.75-0.08 5.76-0.12 9.2-0.12 3 0 6.09 0 9.13 0.06s6 0.05 9.05 0.05H869.5c10.12 0 18.09 9.29 18.54 21.61a22.34 22.34 0 0 1-6.17 16.22 17.33 17.33 0 0 1-12.37 5.65h-1c-2.81 0.09-5.81 0.13-9.24 0.13z m-18.2-7.36c3 0 6.08 0 9.13 0.06s6 0 9.07 0c3.37 0 6.3 0 9-0.11h1.27a10.28 10.28 0 0 0 7.14-3.43 15 15 0 0 0 4.15-10.93c-0.3-8.2-5.27-14.63-11.3-14.63H201c-3 0-6.08 0-9.12-0.05s-6-0.06-9.06-0.06c-3.37 0-6.32 0-9 0.11h-1.23a10.27 10.27 0 0 0-7.18 3.44 15 15 0 0 0-4.15 10.92c0.3 8.2 5.26 14.63 11.29 14.63h668.51z" fill="#133131" p-id="22905"></path><path d="M304.39 236a222.67 222.67 0 0 0-38.52 19.8c-23.22 15-41.88 32.67-47.45 52.09a49.68 49.68 0 0 0 3 36.44 83.19 83.19 0 0 0 13.81 19.45c6.52 7.11 15 13.63 21.95 20.61 13.13 13.19 22.47 27.21 27.39 42.33 0.32 1 0.6 2 0.9 2.95 0.95 3.12-0.2-1 0.23 0.84 0.37 1.6 0.69 3.2 0.95 4.81a69.37 69.37 0 0 1 0.91 9.84 67.78 67.78 0 0 1-0.48 9.44c-0.18 1.46-0.4 2.9-0.67 4.35-0.14 0.72-0.3 1.43-0.44 2.14-0.46 2.36 0.44-1.33-0.2 0.79a77.59 77.59 0 0 1-8.15 18.68q-1.31 2.13-2.76 4.23c-0.32 0.46-0.65 0.92-1 1.37s-2.73 3.47-0.72 1c-2 2.41-4.07 4.79-6.39 7.11a94 94 0 0 1-7 6.34c-1.23 1-2.5 2-3.83 3A19.49 19.49 0 0 1 254 505c1.48-0.87 2-1.33 0.2-0.19-2.56 1.62-5.18 3.2-8.05 4.67-1.31 0.68-2.7 1.31-4.06 2-3.2 1.52 3.43-1.27-1.05 0.43-8 3-11.75 8.44-6.5 13.23 4.6 4.2 16.77 6.51 24.79 3.47 29.39-11.15 46.87-29.87 56.13-48 13.36-26.24 10.15-54.64-6.18-80.28a152 152 0 0 0-18.69-23.48c-6.9-7.18-15.5-13.83-22.4-21q-2.29-2.38-4.34-4.83c-0.31-0.36-1.77-2.25-0.61-0.72-0.54-0.72-1.07-1.43-1.58-2.15a64 64 0 0 1-5.29-8.89q-1.08-2.27-1.94-4.55c-0.25-0.68-0.48-1.36-0.7-2.05 0 0-0.82-2.68-0.37-1.14s-0.24-1.1-0.24-1.13c-0.13-0.66-0.25-1.33-0.35-2a39.46 39.46 0 0 1-0.42-4.32 40.69 40.69 0 0 1 0.43-8c0.09-0.62 0.2-1.24 0.32-1.86 0-0.11 0.58-2.55 0.18-0.92s0.24-0.78 0.27-0.9q0.33-1.08 0.72-2.16a58.93 58.93 0 0 1 7.63-14.28c0.45-0.64 0.94-1.28 1.41-1.92 1.55-2.12-1.3 1.41-0.09 0.11 0.93-1 1.72-2 2.62-3.06q2.81-3.14 6-6.15a140.42 140.42 0 0 1 13.27-11l2-1.43c1.64-1.19 1.12-0.9-0.2 0.12 1.2-0.92 2.62-1.77 3.95-2.64q3.77-2.44 7.74-4.79 6.57-3.87 13.68-7.45c3.23-1.62 6.53-3.2 9.95-4.71 1-0.43 2-0.84 3-1.28a26.4 26.4 0 0 0-2.49 1c7.84-3.11 11.82-8.37 6.5-13.23-4.53-4.13-16.89-6.6-24.79-3.47" fill="#F7ECBF" p-id="22906"></path><path d="M327.74 236a223 223 0 0 0-38.52 19.8c-23.22 15-41.88 32.67-47.45 52.09a49.73 49.73 0 0 0 3 36.44 83.48 83.48 0 0 0 13.81 19.45c6.53 7.11 15 13.63 22 20.61 13.11 13.16 22.42 27.18 27.42 42.3 0.32 1 0.6 2 0.9 2.95 0.95 3.12-0.2-1 0.23 0.84 0.37 1.6 0.69 3.2 0.95 4.81a67.93 67.93 0 0 1 0.91 9.84 66.28 66.28 0 0 1-0.48 9.44c-0.17 1.46-0.4 2.9-0.67 4.35-0.14 0.72-0.3 1.43-0.44 2.14-0.46 2.36 0.44-1.33-0.19 0.79a78 78 0 0 1-8.21 18.68c-0.86 1.42-1.79 2.83-2.76 4.23-0.32 0.46-0.64 0.92-1 1.37s-2.74 3.47-0.73 1a95.09 95.09 0 0 1-6.39 7.11 93.8 93.8 0 0 1-7 6.34c-1.24 1-2.51 2-3.84 3a19.49 19.49 0 0 1-1.95 1.41c1.48-0.87 2-1.33 0.2-0.19-2.55 1.62-5.18 3.2-8 4.67-1.32 0.68-2.7 1.31-4.06 2-3.21 1.52 3.42-1.27-1.06 0.43-8 3-11.75 8.44-6.5 13.23 4.61 4.2 16.77 6.51 24.79 3.47 29.39-11.15 46.87-29.87 56.13-48 13.37-26.24 10.15-54.64-6.17-80.28A152 152 0 0 0 314 376.75c-6.9-7.18-15.5-13.83-22.4-21q-2.3-2.38-4.34-4.83c-0.31-0.36-1.77-2.25-0.61-0.72-0.54-0.72-1.07-1.43-1.57-2.15a62.09 62.09 0 0 1-5.29-8.89q-1.1-2.27-1.94-4.55c-0.25-0.68-0.49-1.36-0.71-2.05 0 0-0.81-2.68-0.37-1.14s-0.23-1.1-0.24-1.13c-0.13-0.66-0.25-1.33-0.35-2a42.09 42.09 0 0 1-0.42-4.32 41.46 41.46 0 0 1 0.43-8c0.09-0.62 0.2-1.24 0.32-1.86 0-0.11 0.58-2.55 0.18-0.92s0.24-0.78 0.28-0.9c0.22-0.72 0.45-1.44 0.71-2.16a58.93 58.93 0 0 1 7.63-14.28c0.46-0.64 1-1.28 1.41-1.92 1.55-2.12-1.3 1.41-0.09 0.11 0.94-1 1.72-2 2.63-3.06q2.79-3.14 6-6.15a137.93 137.93 0 0 1 13.27-11l2-1.43c1.64-1.19 1.12-0.9-0.2 0.12 1.19-0.92 2.61-1.77 3.94-2.64q3.76-2.44 7.75-4.79 6.56-3.87 13.67-7.45c3.23-1.62 6.54-3.2 9.95-4.71 1-0.43 2-0.84 3-1.28 1.86-0.82-4.76 1.93-2.49 1 7.84-3.11 11.83-8.37 6.5-13.23-4.52-4.13-16.89-6.6-24.79-3.47" fill="#F7ECBF" p-id="22907"></path><path d="M273.87 236a222.31 222.31 0 0 0-38.52 19.8c-23.22 15-41.88 32.67-47.45 52.09a49.68 49.68 0 0 0 3 36.44 82.9 82.9 0 0 0 13.81 19.45c6.52 7.11 15 13.63 21.95 20.61 13.13 13.19 22.47 27.21 27.39 42.33 0.32 1 0.59 2 0.89 2.95 1 3.12-0.2-1 0.24 0.84 0.37 1.6 0.69 3.2 1 4.81a69.37 69.37 0 0 1 0.91 9.84 67.78 67.78 0 0 1-0.48 9.44c-0.18 1.46-0.4 2.9-0.68 4.35-0.13 0.72-0.3 1.43-0.44 2.14-0.46 2.36 0.44-1.33-0.19 0.79a78.38 78.38 0 0 1-8.15 18.68q-1.31 2.13-2.77 4.23c-0.31 0.46-0.64 0.92-1 1.37s-2.74 3.47-0.72 1c-2 2.41-4.07 4.79-6.39 7.11a94 94 0 0 1-7 6.34q-1.84 1.51-3.83 3a20.71 20.71 0 0 1-1.94 1.39c1.48-0.87 2-1.33 0.2-0.19-2.56 1.62-5.19 3.2-8 4.67-1.32 0.68-2.7 1.31-4.06 2-3.21 1.52 3.43-1.27-1.05 0.43-8 3-11.76 8.44-6.5 13.23 4.6 4.2 16.77 6.51 24.79 3.47 29.39-11.15 46.87-29.87 56.12-48 13.37-26.24 10.16-54.64-6.17-80.28a151.43 151.43 0 0 0-18.7-23.48c-6.9-7.18-15.49-13.83-22.4-21q-2.28-2.38-4.34-4.83c-0.3-0.36-1.76-2.25-0.6-0.72-0.54-0.72-1.07-1.43-1.58-2.15a63 63 0 0 1-5.29-8.89c-0.73-1.51-1.37-3-1.94-4.55-0.25-0.68-0.49-1.36-0.7-2.05 0 0-0.82-2.68-0.38-1.14s-0.23-1.1-0.23-1.13c-0.14-0.66-0.25-1.33-0.35-2a42.12 42.12 0 0 1-0.43-4.32 41.46 41.46 0 0 1 0.43-8c0.1-0.62 0.2-1.24 0.33-1.86 0-0.11 0.58-2.55 0.18-0.92s0.24-0.78 0.27-0.9q0.33-1.08 0.72-2.16a59.23 59.23 0 0 1 7.62-14.28c0.46-0.64 1-1.28 1.42-1.92 1.55-2.12-1.3 1.41-0.09 0.11 0.93-1 1.72-2 2.62-3.06q2.81-3.14 6-6.15a140.42 140.42 0 0 1 13.27-11l2-1.43c1.64-1.19 1.12-0.9-0.2 0.12 1.19-0.92 2.62-1.77 3.95-2.64 2.5-1.63 5.09-3.23 7.74-4.79q6.56-3.87 13.68-7.45c3.22-1.62 6.53-3.2 9.94-4.71 1-0.43 2-0.84 3-1.28a26.4 26.4 0 0 0-2.49 1c7.84-3.11 11.82-8.37 6.5-13.23-4.53-4.13-16.89-6.6-24.79-3.47" fill="#133131" p-id="22908"></path><path d="M354.8 236a222.31 222.31 0 0 0-38.52 19.8c-23.23 15-41.88 32.67-47.46 52.09a49.74 49.74 0 0 0 3 36.44 82.9 82.9 0 0 0 13.81 19.45c6.52 7.11 15 13.63 21.95 20.61 13.13 13.19 22.47 27.21 27.39 42.33 0.32 1 0.59 2 0.89 2.95 1 3.12-0.2-1 0.23 0.84 0.38 1.6 0.7 3.2 1 4.81a69.37 69.37 0 0 1 0.91 9.84 67.78 67.78 0 0 1-0.48 9.44c-0.18 1.46-0.4 2.9-0.68 4.35-0.13 0.72-0.3 1.43-0.44 2.14-0.46 2.36 0.44-1.33-0.19 0.79a78 78 0 0 1-8.16 18.68q-1.29 2.13-2.76 4.23c-0.31 0.46-0.64 0.92-1 1.37s-2.74 3.47-0.72 1c-2 2.41-4.07 4.79-6.39 7.11a94 94 0 0 1-7 6.34q-1.84 1.51-3.83 3a20.71 20.71 0 0 1-1.95 1.41c1.48-0.87 2-1.33 0.2-0.19-2.56 1.62-5.19 3.2-8.05 4.67-1.32 0.68-2.7 1.31-4.06 2-3.21 1.52 3.43-1.27-1 0.43-8 3-11.76 8.44-6.5 13.23 4.6 4.2 16.77 6.51 24.79 3.47 29.39-11.15 46.87-29.87 56.12-48 13.37-26.24 10.16-54.64-6.17-80.28a151.43 151.43 0 0 0-18.73-23.6c-6.9-7.18-15.49-13.83-22.4-21q-2.28-2.38-4.34-4.83c-0.3-0.36-1.76-2.25-0.6-0.72-0.54-0.72-1.07-1.43-1.58-2.15a63 63 0 0 1-5.29-8.89c-0.73-1.51-1.37-3-1.94-4.55-0.25-0.68-0.49-1.36-0.7-2.05 0 0-0.82-2.68-0.38-1.14s-0.23-1.1-0.23-1.13c-0.14-0.66-0.25-1.33-0.35-2a42.12 42.12 0 0 1-0.43-4.32 41.46 41.46 0 0 1 0.43-8c0.1-0.62 0.2-1.24 0.33-1.86 0-0.11 0.58-2.55 0.18-0.92s0.24-0.78 0.27-0.9q0.33-1.08 0.72-2.16a59.23 59.23 0 0 1 7.62-14.28c0.46-0.64 0.95-1.28 1.42-1.92 1.55-2.12-1.3 1.41-0.09 0.11 0.93-1 1.72-2 2.62-3.06q2.81-3.14 6-6.15a140.42 140.42 0 0 1 13.27-11l2-1.43c1.64-1.19 1.12-0.9-0.2 0.12 1.19-0.92 2.62-1.77 3.95-2.64 2.5-1.63 5.09-3.23 7.74-4.79q6.56-3.87 13.68-7.45c3.22-1.62 6.53-3.2 9.94-4.71 1-0.43 2-0.84 3-1.28a26.4 26.4 0 0 0-2.49 1c7.84-3.11 11.82-8.37 6.5-13.23-4.53-4.13-16.89-6.6-24.79-3.47" fill="#133131" p-id="22909"></path><path d="M369.39 246.25c0 6.34-4.39 11.49-9.8 11.49h-78.27c-5.41 0-9.8-5.15-9.8-11.49s4.39-11.48 9.8-11.48h78.27c5.41 0 9.8 5.14 9.8 11.48zM314.23 518.27c0 6.34-4.5 11.49-10 11.49H224c-5.54 0-10-5.15-10-11.49s4.49-11.48 10-11.48h80.19c5.54 0 10 5.14 10 11.48z" fill="#133131" p-id="22910"></path><path d="M450.22 236a222.67 222.67 0 0 0-38.52 19.8c-23.22 15-41.88 32.67-47.45 52.09a49.68 49.68 0 0 0 3 36.44 83.48 83.48 0 0 0 13.81 19.45c6.52 7.11 15 13.63 22 20.61 13.13 13.19 22.47 27.21 27.39 42.33 0.32 1 0.6 2 0.9 2.95 0.95 3.12-0.2-1 0.23 0.84 0.37 1.6 0.69 3.2 0.95 4.81a67.65 67.65 0 0 1 0.43 19.28c-0.18 1.46-0.4 2.9-0.67 4.35-0.14 0.72-0.3 1.43-0.44 2.14-0.46 2.36 0.44-1.33-0.19 0.79a78 78 0 0 1-8.16 18.68q-1.31 2.13-2.76 4.23c-0.32 0.46-0.65 0.92-1 1.37s-2.73 3.47-0.72 1c-2 2.41-4.07 4.79-6.39 7.11a94 94 0 0 1-7 6.34c-1.23 1-2.5 2-3.83 3a19.49 19.49 0 0 1-1.95 1.41c1.48-0.87 2-1.33 0.2-0.19-2.56 1.62-5.18 3.2-8.05 4.67-1.31 0.68-2.69 1.31-4.06 2-3.2 1.52 3.43-1.27-1.05 0.43-8 3-11.75 8.44-6.5 13.23 4.61 4.2 16.77 6.51 24.79 3.47 29.39-11.15 46.87-29.87 56.13-48 13.36-26.24 10.15-54.64-6.18-80.28a152 152 0 0 0-18.69-23.48c-6.9-7.18-15.5-13.83-22.4-21q-2.3-2.38-4.34-4.83c-0.31-0.36-1.77-2.25-0.61-0.72-0.54-0.72-1.07-1.43-1.58-2.15a63 63 0 0 1-5.28-8.89q-1.1-2.27-1.94-4.55c-0.25-0.68-0.49-1.36-0.71-2.05 0 0-0.82-2.68-0.37-1.14s-0.23-1.1-0.24-1.13c-0.13-0.66-0.25-1.33-0.35-2a42.09 42.09 0 0 1-0.42-4.32 40.69 40.69 0 0 1 0.43-8c0.09-0.62 0.2-1.24 0.32-1.86 0-0.11 0.58-2.55 0.18-0.92s0.24-0.78 0.28-0.9c0.22-0.72 0.45-1.44 0.71-2.16a58.93 58.93 0 0 1 7.63-14.28c0.46-0.64 0.94-1.28 1.41-1.92 1.55-2.12-1.3 1.41-0.09 0.11 0.94-1 1.72-2 2.63-3.06q2.79-3.14 6-6.15a140.42 140.42 0 0 1 13.27-11l2-1.43c1.65-1.19 1.12-0.9-0.2 0.12 1.2-0.92 2.62-1.77 3.95-2.64q3.76-2.44 7.75-4.79 6.56-3.87 13.67-7.45c3.23-1.62 6.53-3.2 10-4.71 1-0.43 2-0.84 3-1.28a26.4 26.4 0 0 0-2.49 1c7.84-3.11 11.83-8.37 6.5-13.23-4.52-4.13-16.89-6.6-24.79-3.47" fill="#F7ECBF" p-id="22911"></path><path d="M473.57 236a223 223 0 0 0-38.52 19.8c-23.22 15-41.87 32.67-47.45 52.09a49.74 49.74 0 0 0 3 36.44 82.9 82.9 0 0 0 13.81 19.45c6.52 7.11 15 13.63 21.95 20.61 13.12 13.19 22.46 27.21 27.38 42.33 0.32 1 0.6 2 0.9 2.95 0.95 3.12-0.2-1 0.23 0.84 0.38 1.6 0.69 3.2 1 4.81a69.35 69.35 0 0 1 0.9 9.84 64.84 64.84 0 0 1-0.48 9.44c-0.17 1.46-0.4 2.9-0.67 4.35-0.14 0.72-0.3 1.43-0.44 2.14-0.46 2.36 0.44-1.33-0.19 0.79a78 78 0 0 1-8.16 18.68q-1.29 2.13-2.76 4.23c-0.32 0.46-0.64 0.92-1 1.37s-2.74 3.47-0.72 1c-2 2.41-4.08 4.79-6.4 7.11a93.8 93.8 0 0 1-7 6.34q-1.85 1.51-3.83 3a20.88 20.88 0 0 1-2 1.41c1.48-0.87 2-1.33 0.2-0.19-2.55 1.62-5.18 3.2-8 4.67-1.32 0.68-2.7 1.31-4.06 2-3.21 1.52 3.43-1.27-1.06 0.43-8 3-11.75 8.44-6.5 13.23 4.61 4.2 16.78 6.51 24.79 3.47 29.4-11.15 46.88-29.87 56.13-48 13.37-26.24 10.16-54.64-6.17-80.28a152 152 0 0 0-18.7-23.48c-6.9-7.18-15.49-13.83-22.4-21q-2.29-2.38-4.34-4.83c-0.31-0.36-1.77-2.25-0.61-0.72-0.54-0.72-1.06-1.43-1.57-2.15a62.09 62.09 0 0 1-5.29-8.89q-1.09-2.27-1.94-4.55c-0.25-0.68-0.49-1.36-0.71-2.05 0 0-0.81-2.68-0.37-1.14s-0.23-1.1-0.24-1.13c-0.13-0.66-0.24-1.33-0.34-2a42.12 42.12 0 0 1-0.43-4.32 41.46 41.46 0 0 1 0.43-8c0.1-0.62 0.2-1.24 0.32-1.86 0-0.11 0.58-2.55 0.18-0.92s0.24-0.78 0.28-0.9c0.22-0.72 0.46-1.44 0.71-2.16a58.93 58.93 0 0 1 7.63-14.28c0.46-0.64 0.95-1.28 1.42-1.92 1.54-2.12-1.3 1.41-0.09 0.11 0.93-1 1.71-2 2.62-3.06q2.79-3.14 6-6.15a137.93 137.93 0 0 1 13.27-11l2-1.43c1.64-1.19 1.12-0.9-0.2 0.12 1.19-0.92 2.61-1.77 3.94-2.64q3.76-2.44 7.75-4.79 6.56-3.87 13.67-7.45c3.23-1.62 6.54-3.2 9.95-4.71 1-0.43 2-0.84 3-1.28 1.85-0.82-4.77 1.93-2.5 1 7.84-3.11 11.83-8.37 6.5-13.23-4.52-4.13-16.89-6.6-24.79-3.47" fill="#F7ECBF" p-id="22912"></path><path d="M419.7 236a222.67 222.67 0 0 0-38.52 19.8c-23.22 15-41.88 32.67-47.45 52.09a49.68 49.68 0 0 0 3 36.44 83.19 83.19 0 0 0 13.81 19.45c6.52 7.11 15 13.63 21.95 20.61 13.13 13.19 22.47 27.21 27.39 42.33 0.32 1 0.6 2 0.9 2.95 0.95 3.12-0.2-1 0.23 0.84 0.37 1.6 0.69 3.2 0.95 4.81a69.37 69.37 0 0 1 0.91 9.84 67.78 67.78 0 0 1-0.48 9.44c-0.18 1.46-0.4 2.9-0.68 4.35-0.13 0.72-0.29 1.43-0.43 2.14-0.46 2.36 0.44-1.33-0.2 0.79a78 78 0 0 1-8.08 18.65q-1.31 2.13-2.76 4.23c-0.32 0.46-0.65 0.92-1 1.37s-2.73 3.47-0.72 1c-2 2.41-4.07 4.79-6.39 7.11a94 94 0 0 1-7 6.34c-1.23 1-2.5 2-3.83 3a19.49 19.49 0 0 1-1.95 1.41c1.48-0.87 2-1.33 0.2-0.19-2.56 1.62-5.18 3.2-8 4.67-1.31 0.68-2.7 1.31-4.06 2-3.2 1.52 3.43-1.27-1.05 0.43-8 3-11.75 8.44-6.5 13.23 4.6 4.2 16.77 6.51 24.79 3.47 29.39-11.15 46.87-29.87 56.13-48 13.36-26.24 10.15-54.64-6.18-80.28a152 152 0 0 0-18.69-23.48c-6.91-7.18-15.5-13.83-22.41-21-1.52-1.59-3-3.2-4.33-4.83-0.31-0.36-1.77-2.25-0.61-0.72-0.54-0.72-1.07-1.43-1.58-2.15a64 64 0 0 1-5.29-8.89q-1.08-2.27-1.94-4.55c-0.25-0.68-0.49-1.36-0.7-2.05 0 0-0.82-2.68-0.37-1.14s-0.24-1.1-0.24-1.13c-0.14-0.66-0.25-1.33-0.35-2a39.46 39.46 0 0 1-0.42-4.32 40.69 40.69 0 0 1 0.43-8c0.09-0.62 0.2-1.24 0.32-1.86 0-0.11 0.58-2.55 0.18-0.92s0.24-0.78 0.27-0.9q0.33-1.08 0.72-2.16a58.93 58.93 0 0 1 7.63-14.28c0.45-0.64 0.94-1.28 1.41-1.92 1.55-2.12-1.3 1.41-0.09 0.11 0.93-1 1.72-2 2.62-3.06q2.81-3.14 6-6.15a140.42 140.42 0 0 1 13.27-11l2-1.43c1.64-1.19 1.12-0.9-0.2 0.12 1.2-0.92 2.62-1.77 3.95-2.64q3.77-2.44 7.74-4.79 6.57-3.87 13.68-7.45c3.23-1.62 6.53-3.2 9.95-4.71 1-0.43 2-0.84 3-1.28a26.4 26.4 0 0 0-2.49 1c7.84-3.11 11.82-8.37 6.5-13.23-4.53-4.13-16.89-6.6-24.79-3.47" fill="#133131" p-id="22913"></path><path d="M500.63 236a222.67 222.67 0 0 0-38.52 19.8c-23.22 15-41.88 32.67-47.45 52.09a49.68 49.68 0 0 0 3 36.44 82.9 82.9 0 0 0 13.81 19.45c6.52 7.11 15 13.63 21.95 20.61 13.13 13.19 22.47 27.21 27.39 42.33 0.32 1 0.59 2 0.9 2.95 0.95 3.12-0.21-1 0.23 0.84 0.37 1.6 0.69 3.2 0.95 4.81a69.37 69.37 0 0 1 0.91 9.84 67.78 67.78 0 0 1-0.48 9.44c-0.18 1.46-0.4 2.9-0.68 4.35-0.13 0.72-0.3 1.43-0.43 2.14-0.46 2.36 0.44-1.33-0.2 0.79a78.38 78.38 0 0 1-8.15 18.68q-1.31 2.13-2.76 4.23c-0.32 0.46-0.65 0.92-1 1.37s-2.74 3.47-0.72 1c-2 2.41-4.07 4.79-6.39 7.11a94 94 0 0 1-7 6.34q-1.85 1.51-3.83 3a20.71 20.71 0 0 1-1.95 1.41c1.48-0.87 2-1.33 0.2-0.19-2.56 1.62-5.19 3.2-8 4.67-1.31 0.68-2.7 1.31-4.06 2-3.2 1.52 3.43-1.27-1.05 0.43-8 3-11.76 8.44-6.5 13.23 4.6 4.2 16.77 6.51 24.79 3.47 29.39-11.15 46.87-29.87 56.12-48 13.37-26.24 10.16-54.64-6.17-80.28a151.43 151.43 0 0 0-18.7-23.48c-6.9-7.18-15.49-13.83-22.4-21q-2.28-2.38-4.34-4.83c-0.3-0.36-1.76-2.25-0.6-0.72-0.54-0.72-1.07-1.43-1.58-2.15a63 63 0 0 1-5.29-8.89q-1.08-2.27-1.94-4.55c-0.25-0.68-0.49-1.36-0.7-2.05 0 0-0.82-2.68-0.37-1.14s-0.24-1.1-0.24-1.13c-0.14-0.66-0.25-1.33-0.35-2a39.46 39.46 0 0 1-0.42-4.32 40.69 40.69 0 0 1 0.43-8c0.09-0.62 0.2-1.24 0.32-1.86 0-0.11 0.58-2.55 0.18-0.92s0.24-0.78 0.27-0.9q0.33-1.08 0.72-2.16a58.93 58.93 0 0 1 7.63-14.28c0.45-0.64 0.94-1.28 1.41-1.92 1.55-2.12-1.3 1.41-0.09 0.11 0.93-1 1.72-2 2.62-3.06q2.81-3.14 6-6.15a140.42 140.42 0 0 1 13.27-11l2-1.43c1.64-1.19 1.12-0.9-0.2 0.12 1.19-0.92 2.62-1.77 3.95-2.64q3.76-2.44 7.74-4.79 6.57-3.87 13.68-7.45c3.23-1.62 6.53-3.2 10-4.71 1-0.43 2-0.84 3-1.28a26.4 26.4 0 0 0-2.49 1c7.84-3.11 11.82-8.37 6.5-13.23-4.53-4.13-16.89-6.6-24.79-3.47" fill="#133131" p-id="22914"></path><path d="M515.22 246.25c0 6.34-4.39 11.49-9.8 11.49h-78.27c-5.41 0-9.8-5.15-9.8-11.49s4.39-11.48 9.8-11.48h78.27c5.41 0 9.8 5.14 9.8 11.48zM460.06 518.27c0 6.34-4.5 11.49-10 11.49h-80.22c-5.55 0-10-5.15-10-11.49s4.49-11.48 10-11.48H450c5.54 0 10 5.14 10 11.48z" fill="#133131" p-id="22915"></path><path d="M596.05 236a223 223 0 0 0-38.52 19.8c-23.22 15-41.88 32.67-47.45 52.09a49.73 49.73 0 0 0 3 36.44 83.48 83.48 0 0 0 13.81 19.45c6.53 7.11 15 13.63 22 20.61 13.12 13.19 22.46 27.21 27.38 42.33 0.32 1 0.6 2 0.9 2.95 1 3.12-0.2-1 0.23 0.84 0.37 1.6 0.69 3.2 1 4.81a67.93 67.93 0 0 1 0.91 9.84 66.28 66.28 0 0 1-0.48 9.44c-0.18 1.46-0.4 2.9-0.67 4.35-0.14 0.72-0.3 1.43-0.44 2.14-0.46 2.36 0.44-1.33-0.19 0.79a78 78 0 0 1-8.16 18.68q-1.29 2.13-2.76 4.23l-1 1.37c-0.35 0.47-2.74 3.47-0.72 1-2 2.41-4.08 4.79-6.4 7.11a93.8 93.8 0 0 1-7 6.34c-1.24 1-2.51 2-3.83 3a20.88 20.88 0 0 1-2 1.41c1.48-0.87 2-1.33 0.2-0.19-2.55 1.62-5.18 3.2-8 4.67-1.32 0.68-2.7 1.31-4.06 2-3.21 1.52 3.43-1.27-1.06 0.43-8 3-11.75 8.44-6.5 13.23 4.61 4.2 16.77 6.51 24.79 3.47 29.39-11.15 46.87-29.87 56.13-48 13.37-26.24 10.15-54.64-6.17-80.28a152 152 0 0 0-18.7-23.48c-6.9-7.18-15.5-13.83-22.4-21q-2.29-2.38-4.34-4.83c-0.31-0.36-1.77-2.25-0.61-0.72-0.54-0.72-1.07-1.43-1.57-2.15a62.09 62.09 0 0 1-5.29-8.89q-1.09-2.27-1.94-4.55c-0.25-0.68-0.49-1.36-0.71-2.05 0 0-0.81-2.68-0.37-1.14s-0.23-1.1-0.24-1.13c-0.13-0.66-0.25-1.33-0.34-2A39.49 39.49 0 0 1 544 324a41.46 41.46 0 0 1 0.43-8c0.09-0.62 0.2-1.24 0.32-1.86 0-0.11 0.58-2.55 0.18-0.92s0.24-0.78 0.28-0.9c0.22-0.72 0.46-1.44 0.71-2.16a58.93 58.93 0 0 1 7.63-14.28c0.46-0.64 0.95-1.28 1.41-1.92 1.55-2.12-1.3 1.41-0.09 0.11 0.94-1 1.72-2 2.63-3.06q2.79-3.14 6-6.15a137.93 137.93 0 0 1 13.27-11l2-1.43c1.64-1.19 1.12-0.9-0.2 0.12 1.19-0.92 2.61-1.77 3.94-2.64q3.76-2.44 7.75-4.79 6.56-3.87 13.67-7.45c3.23-1.62 6.54-3.2 10-4.71 1-0.43 2-0.84 3-1.28 1.86-0.82-4.77 1.93-2.49 1 7.84-3.11 11.83-8.37 6.5-13.23-4.52-4.13-16.89-6.6-24.79-3.47" fill="#F7ECBF" p-id="22916"></path><path d="M619.4 236a222.56 222.56 0 0 0-38.51 19.8c-23.23 15-41.88 32.67-47.46 52.09a49.74 49.74 0 0 0 3 36.44 82.9 82.9 0 0 0 13.81 19.45c6.52 7.11 15 13.63 22 20.61 13.12 13.19 22.47 27.21 27.39 42.33 0.31 1 0.59 2 0.89 2.95 1 3.12-0.2-1 0.23 0.84 0.38 1.6 0.7 3.2 1 4.81a69.35 69.35 0 0 1 0.9 9.84 66.27 66.27 0 0 1-0.47 9.44c-0.18 1.46-0.41 2.9-0.68 4.35-0.13 0.72-0.3 1.43-0.44 2.14-0.46 2.36 0.44-1.33-0.19 0.79a78 78 0 0 1-8.16 18.68q-1.29 2.13-2.76 4.23c-0.32 0.46-0.64 0.92-1 1.37s-2.74 3.47-0.72 1a95.27 95.27 0 0 1-6.4 7.11 93.8 93.8 0 0 1-7 6.34q-1.85 1.51-3.83 3a20.71 20.71 0 0 1-2 1.41c1.47-0.87 2-1.33 0.19-0.19-2.55 1.62-5.18 3.2-8 4.67-1.32 0.68-2.7 1.31-4.06 2-3.21 1.52 3.43-1.27-1.06 0.43-8 3-11.75 8.44-6.5 13.23 4.61 4.2 16.78 6.51 24.79 3.47 29.4-11.15 46.88-29.87 56.13-48 13.37-26.24 10.16-54.64-6.17-80.28a152 152 0 0 0-18.7-23.48c-6.9-7.18-15.49-13.83-22.4-21-1.53-1.59-3-3.2-4.34-4.83-0.31-0.36-1.76-2.25-0.6-0.72-0.55-0.72-1.07-1.43-1.58-2.15a63 63 0 0 1-5.29-8.89q-1.1-2.27-1.94-4.55c-0.25-0.68-0.49-1.36-0.71-2.05 0 0-0.81-2.68-0.37-1.14s-0.23-1.1-0.24-1.13c-0.13-0.66-0.24-1.33-0.34-2a42.12 42.12 0 0 1-0.43-4.32 41.46 41.46 0 0 1 0.43-8c0.1-0.62 0.2-1.24 0.32-1.86 0-0.11 0.58-2.55 0.18-0.92s0.24-0.78 0.28-0.9c0.22-0.72 0.46-1.44 0.71-2.16a59.28 59.28 0 0 1 7.63-14.28c0.46-0.64 1-1.28 1.42-1.92 1.54-2.12-1.3 1.41-0.09 0.11 0.93-1 1.72-2 2.62-3.06 1.86-2.09 3.87-4.14 6-6.15a139.17 139.17 0 0 1 13.27-11l2-1.43c1.64-1.19 1.12-0.9-0.2 0.12 1.19-0.92 2.62-1.77 4-2.64 2.5-1.63 5.09-3.23 7.74-4.79q6.55-3.87 13.68-7.45c3.22-1.62 6.53-3.2 9.94-4.71 1-0.43 2-0.84 3-1.28 1.85-0.82-4.77 1.93-2.5 1 7.85-3.11 11.83-8.37 6.5-13.23-4.52-4.13-16.89-6.6-24.79-3.47" fill="#F7ECBF" p-id="22917"></path><path d="M565.53 236A222.67 222.67 0 0 0 527 255.77c-23.22 15-41.88 32.67-47.45 52.09a49.68 49.68 0 0 0 3 36.44 83.48 83.48 0 0 0 13.81 19.45c6.52 7.11 15 13.63 22 20.61 13.13 13.19 22.47 27.21 27.39 42.33 0.32 1 0.6 2 0.9 2.95 1 3.12-0.2-1 0.23 0.84 0.37 1.6 0.69 3.2 1 4.81a69.37 69.37 0 0 1 0.91 9.84 67.78 67.78 0 0 1-0.48 9.44c-0.18 1.46-0.4 2.9-0.67 4.35-0.14 0.72-0.3 1.43-0.44 2.14-0.46 2.36 0.44-1.33-0.19 0.79a78 78 0 0 1-8.16 18.68q-1.31 2.13-2.76 4.23c-0.32 0.46-0.65 0.92-1 1.37s-2.73 3.47-0.72 1c-2 2.41-4.07 4.79-6.39 7.11a94 94 0 0 1-7 6.34c-1.23 1-2.5 2-3.83 3a19.49 19.49 0 0 1-2 1.41c1.48-0.87 2-1.33 0.2-0.19-2.56 1.62-5.18 3.2-8.05 4.67-1.31 0.68-2.69 1.31-4.06 2-3.2 1.52 3.43-1.27-1.05 0.43-8 3-11.75 8.44-6.5 13.23 4.61 4.2 16.77 6.51 24.79 3.47 29.39-11.15 46.87-29.87 56.13-48 13.37-26.24 10.15-54.64-6.18-80.28a152 152 0 0 0-18.69-23.48c-6.9-7.18-15.5-13.83-22.4-21q-2.29-2.38-4.34-4.83c-0.31-0.36-1.77-2.25-0.61-0.72-0.54-0.72-1.07-1.43-1.58-2.15a63 63 0 0 1-5.28-8.89q-1.1-2.27-1.94-4.55c-0.25-0.68-0.49-1.36-0.71-2.05 0 0-0.82-2.68-0.37-1.14s-0.23-1.1-0.24-1.13c-0.13-0.66-0.25-1.33-0.35-2a42.09 42.09 0 0 1-0.42-4.32 40.69 40.69 0 0 1 0.43-8c0.09-0.62 0.2-1.24 0.32-1.86 0-0.11 0.58-2.55 0.18-0.92s0.24-0.78 0.28-0.9c0.21-0.72 0.45-1.44 0.71-2.16a58.93 58.93 0 0 1 7.63-14.28c0.46-0.64 0.94-1.28 1.41-1.92 1.55-2.12-1.3 1.41-0.09 0.11 0.94-1 1.72-2 2.63-3.06q2.79-3.14 6-6.15a140.42 140.42 0 0 1 13.27-11l2-1.43c1.65-1.19 1.12-0.9-0.2 0.12 1.2-0.92 2.62-1.77 4-2.64q3.76-2.44 7.75-4.79 6.56-3.87 13.67-7.45c3.23-1.62 6.53-3.2 10-4.71 1-0.43 2-0.84 3-1.28a26.4 26.4 0 0 0-2.49 1c7.84-3.11 11.82-8.37 6.5-13.23-4.52-4.13-16.89-6.6-24.79-3.47" fill="#133131" p-id="22918"></path><path d="M646.46 236a222.67 222.67 0 0 0-38.52 19.8c-23.22 15-41.88 32.67-47.45 52.09a49.68 49.68 0 0 0 3 36.44 83.48 83.48 0 0 0 13.81 19.45c6.52 7.11 15 13.63 21.95 20.61 13.13 13.19 22.47 27.21 27.39 42.33 0.32 1 0.6 2 0.9 2.95 0.95 3.12-0.2-1 0.23 0.84 0.37 1.6 0.69 3.2 1 4.81a69.37 69.37 0 0 1 0.91 9.84 67.78 67.78 0 0 1-0.48 9.44c-0.18 1.46-0.4 2.9-0.67 4.35-0.14 0.72-0.3 1.43-0.44 2.14-0.46 2.36 0.44-1.33-0.2 0.79a77.59 77.59 0 0 1-8.15 18.68q-1.31 2.13-2.76 4.23c-0.32 0.46-0.65 0.92-1 1.37s-2.73 3.47-0.72 1c-2 2.41-4.07 4.79-6.39 7.11a94 94 0 0 1-7 6.34c-1.23 1-2.5 2-3.83 3a19.49 19.49 0 0 1-1.95 1.41c1.48-0.87 2-1.33 0.2-0.19-2.56 1.62-5.18 3.2-8 4.67-1.31 0.68-2.69 1.31-4.06 2-3.2 1.52 3.43-1.27-1 0.43-8 3-11.75 8.44-6.5 13.23 4.6 4.2 16.77 6.51 24.79 3.47 29.39-11.15 46.87-29.87 56.13-48 13.36-26.24 10.15-54.64-6.18-80.28a152 152 0 0 0-18.69-23.48c-6.91-7.18-15.5-13.83-22.4-21q-2.29-2.38-4.34-4.83c-0.31-0.36-1.77-2.25-0.61-0.72-0.54-0.72-1.07-1.43-1.58-2.15a63 63 0 0 1-5.28-8.89q-1.1-2.27-2-4.55c-0.25-0.68-0.48-1.36-0.7-2.05 0 0-0.82-2.68-0.37-1.14s-0.23-1.1-0.24-1.13c-0.13-0.66-0.25-1.33-0.35-2a39.46 39.46 0 0 1-0.42-4.32 40.69 40.69 0 0 1 0.43-8c0.09-0.62 0.2-1.24 0.32-1.86 0-0.11 0.58-2.55 0.18-0.92s0.24-0.78 0.27-0.9q0.33-1.08 0.72-2.16a58.93 58.93 0 0 1 7.59-14.41c0.45-0.64 0.94-1.28 1.41-1.92 1.55-2.12-1.3 1.41-0.09 0.11 0.93-1 1.72-2 2.62-3.06q2.8-3.14 6-6.15a140.42 140.42 0 0 1 13.27-11l2-1.43c1.64-1.19 1.12-0.9-0.2 0.12 1.2-0.92 2.62-1.77 3.95-2.64q3.76-2.44 7.74-4.79 6.57-3.87 13.68-7.45c3.23-1.62 6.53-3.2 9.95-4.71 1-0.43 2-0.84 3-1.28a26.4 26.4 0 0 0-2.49 1c7.84-3.11 11.82-8.37 6.5-13.23-4.53-4.13-16.89-6.6-24.79-3.47" fill="#133131" p-id="22919"></path><path d="M661.05 246.25c0 6.34-4.39 11.49-9.8 11.49H573c-5.41 0-9.79-5.15-9.79-11.49s4.38-11.48 9.79-11.48h78.27c5.41 0 9.8 5.14 9.8 11.48zM605.89 518.27c0 6.34-4.49 11.49-10 11.49h-80.22c-5.55 0-10-5.15-10-11.49s4.49-11.48 10-11.48h80.18c5.55 0 10 5.14 10 11.48z" fill="#133131" p-id="22920"></path><path d="M608.9 872.2c0 6.53-6.48 11.82-14.49 11.82H429.59c-8 0-14.49-5.29-14.49-11.82v-22.48c0-6.53 6.48-11.82 14.49-11.82h164.82c8 0 14.49 5.29 14.49 11.82z" fill="#F7ECBF" p-id="22921"></path><path d="M598 872.2c-0.15 2-20.76 0.94-21.54 0.94H433.57c-1.65 0-6.27 0.52-7.39-0.87-0.89-1.1-0.21-5.14-0.21-6.62v-13.28c0-3.64 1.63-3.47 5-3.6 3.79-0.14 7.61 0 11.4 0h148.05c1.71 0 6.67-0.52 7.61 1 1.26 2.07 0 8.77 0 11.16v11.27c0 14 21.75 14 21.75 0 0-7.4 0.32-14.88 0-22.28-0.62-14.1-12.42-22.48-25.79-22.89-10.87-0.33-21.8 0-32.68 0h-115c-13.48 0-30-2.09-38.49 11.05-5.45 8.37-3.64 20.13-3.64 29.66 0 4.92 0.08 9.72 2.46 14.22 4.31 8.14 13.09 12.38 22 12.88s18.27 0 27.34 0h116.41c10.62 0 24.48 1.91 34.32-2.87 7.93-3.86 12.41-11.18 13.07-19.82 0.44-5.86-5.32-10.87-10.88-10.87-6.25 0.05-10.42 5.04-10.9 10.92z" fill="#133131" p-id="22922"></path><path d="M512 847c205 0 371.35-146.4 372.43-327.35H139.57C140.65 700.61 307 847 512 847z" fill="#DD6E80" p-id="22923"></path><path d="M319.82 770.36a392.62 392.62 0 0 0 64.64 30c5.52 2 11.9-2.24 13.37-7.59 1.66-6-2.05-11.37-7.59-13.37a361.84 361.84 0 0 1-59.44-27.84c-12.12-7.06-23.07 11.73-11 18.77zM185.78 620.87c18.4 46 49.32 85.49 87.42 116.91 4.53 3.73 10.95 4.43 15.38 0 3.84-3.85 4.55-11.62 0-15.37-35-28.86-64.87-64.9-81.83-107.32-2.18-5.45-7.26-9.27-13.37-7.59-5.18 1.42-9.79 7.89-7.6 13.37zM150.84 595.72h697.41c9.44 0 19 0.51 28.47 0h1.27c4.67 0 4.67-7.25 0-7.25H180.58c-9.44 0-19-0.51-28.47 0h-1.27c-4.67 0-4.67 7.25 0 7.25zM140 545h708.2c9.47 0 19.11 0.51 28.57 0h1.25c4.67 0 4.67-7.25 0-7.25H169.79c-9.47 0-19.11-0.51-28.57 0h-1.25c-4.67 0-4.67 7.25 0 7.25zM175 560.23h56.77c7 0 7-10.87 0-10.87H175c-7 0-7 10.87 0 10.87zM175 582.61h56.77c7 0 7-10.87 0-10.87H175c-7 0-7 10.87 0 10.87z" fill="#FFFFFF" p-id="22924"></path><path d="M198 554.79v22.39c0 7 10.87 7 10.87 0v-22.39c0-7-10.87-7-10.87 0zM252.3 560.23h56.77c7 0 7-10.87 0-10.87H252.3c-7 0-7 10.87 0 10.87zM252.3 582.61h56.77c7 0 7-10.87 0-10.87H252.3c-7 0-7 10.87 0 10.87z" fill="#FFFFFF" p-id="22925"></path><path d="M275.25 554.79v22.39c0 7 10.87 7 10.87 0v-22.39c0-7-10.87-7-10.87 0zM329.61 560.23h56.77c7 0 7-10.87 0-10.87h-56.77c-7 0-7 10.87 0 10.87zM329.61 582.61h56.77c7 0 7-10.87 0-10.87h-56.77c-7 0-7 10.87 0 10.87z" fill="#FFFFFF" p-id="22926"></path><path d="M352.56 554.79v22.39c0 7 10.87 7 10.87 0v-22.39c0-7-10.87-7-10.87 0zM406.91 560.23h56.77c7 0 7-10.87 0-10.87h-56.77c-7 0-7 10.87 0 10.87zM406.91 582.61h56.77c7 0 7-10.87 0-10.87h-56.77c-7 0-7 10.87 0 10.87z" fill="#FFFFFF" p-id="22927"></path><path d="M429.86 554.79v22.39c0 7 10.87 7 10.87 0v-22.39c0-7-10.87-7-10.87 0zM484.22 560.23H541c7 0 7-10.87 0-10.87h-56.78c-7 0-7 10.87 0 10.87zM484.22 582.61H541c7 0 7-10.87 0-10.87h-56.78c-7 0-7 10.87 0 10.87z" fill="#FFFFFF" p-id="22928"></path><path d="M507.17 554.79v22.39c0 7 10.87 7 10.87 0v-22.39c0-7-10.87-7-10.87 0zM561.52 560.23h56.78c7 0 7-10.87 0-10.87h-56.78c-7 0-7 10.87 0 10.87zM561.52 582.61h56.78c7 0 7-10.87 0-10.87h-56.78c-7 0-7 10.87 0 10.87z" fill="#FFFFFF" p-id="22929"></path><path d="M584.47 554.79v22.39c0 7 10.88 7 10.88 0v-22.39c0-7-10.88-7-10.88 0zM638.83 560.23h56.77c7 0 7-10.87 0-10.87h-56.77c-7 0-7 10.87 0 10.87zM638.83 582.61h56.77c7 0 7-10.87 0-10.87h-56.77c-7 0-7 10.87 0 10.87z" fill="#FFFFFF" p-id="22930"></path><path d="M661.78 554.79v22.39c0 7 10.87 7 10.87 0v-22.39c0-7-10.87-7-10.87 0zM716.14 560.23h56.77c7 0 7-10.87 0-10.87h-56.77c-7 0-7 10.87 0 10.87zM716.14 582.61h56.77c7 0 7-10.87 0-10.87h-56.77c-7 0-7 10.87 0 10.87z" fill="#FFFFFF" p-id="22931"></path><path d="M739.09 554.79v22.39c0 7 10.87 7 10.87 0v-22.39c0-7-10.87-7-10.87 0zM793.44 560.23h56.77c7 0 7-10.87 0-10.87h-56.77c-7 0-7 10.87 0 10.87zM793.44 582.61h56.77c7 0 7-10.87 0-10.87h-56.77c-7 0-7 10.87 0 10.87z" fill="#FFFFFF" p-id="22932"></path><path d="M816.39 554.79v22.39c0 7 10.87 7 10.87 0v-22.39c0-7-10.87-7-10.87 0z" fill="#FFFFFF" p-id="22933"></path><path d="M512 857.88c77.44-0.16 155-20.73 220.76-62 60.84-38.16 110.77-93.35 138.68-159.83a307.75 307.75 0 0 0 23.86-116.39 11 11 0 0 0-10.87-10.88h-653c-30.16 0-60.48-0.91-90.63 0h-1.24a11 11 0 0 0-10.87 10.88c0.62 71.85 26.9 140.46 71.75 196.27 46.06 57.32 110.35 98.72 180 121.39A428.85 428.85 0 0 0 512 857.88c14 0 14-21.71 0-21.74-73.52-0.16-146.57-19.58-209.1-58.6C246.27 742.2 199.16 690.73 173 629a286.78 286.78 0 0 1-22.54-109.31l-10.87 10.87h714.73c9.53 0 19.36 0.69 28.87 0h1.24l-10.87-10.87c-0.58 66.55-24.86 131.18-66.85 182.71-43.83 53.78-103.88 93-169.72 114.24a408.82 408.82 0 0 1-125 19.53c-13.99 0-13.99 21.74 0.01 21.71z" fill="#133131" p-id="22934"></path></svg>